<?xml version="1.0" encoding="utf-8"?>
<!-- Generator: Adobe Illustrator 23.0.1, SVG Export Plug-In . SVG Version: 6.00 Build 0)  -->
<svg version="1.1" xmlns="http://www.w3.org/2000/svg" xmlns:xlink="http://www.w3.org/1999/xlink" x="0px" y="0px"
	 viewBox="0 0 674.91 230.53" style="enable-background:new 0 0 674.91 230.53;" xml:space="preserve">
<style type="text/css">
	.st0{fill:#C3C3C3;}
	.st1{display:none;}
	.st2{display:inline;fill:#C3C3C3;}
	.st3{fill:none;stroke:#C3C3C3;stroke-miterlimit:10;}
	.st4{fill:#FFFFFF;}
	.st5{fill:#C3C3C3;stroke:#C3C3C3;stroke-width:5;stroke-miterlimit:10;}
	.st6{fill:none;stroke:#FFFFFF;stroke-miterlimit:10;}
	.st7{fill:none;stroke:#FFFFFF;stroke-width:2;stroke-miterlimit:10;}
	.st8{fill:#204684;}
</style>
<g id="Laag_4">
	<path class="st0" d="M138.72,90.5L97.5,75c0,0-4-1-5-4c0-4,8-6,8-6s2-2,0-4h-6v-5h-14v-5c0,0,1-4-2-4l-3-44l-3,44c-3,0-2,4-2,4v5
		h-14v5h-6c-2,2,0,4,0,4s8,2,8,6c-1,3-5,4-5,4L11.28,88.5c0,0-2.36-0.52-1.95-0.5H75.5h62.17L138.72,90.5z"/>
	<circle class="st0" cx="75.5" cy="2" r="2"/>
	<path class="st0" d="M75.5,97h63c0,0,12,0,12,5c0,6-11,6-11,6h-64"/>
	<path class="st0" d="M75.5,97h-63c0,0-12,0-12,5c0,6,11,6,11,6h64"/>
	<path class="st0" d="M134.5,117h-59h-59c0,0-4,0-4,2s8,7,29,9c0,0,11,83,13,94h21h21c2-11,13-94,13-94c21-2,29-7,29-9
		S134.5,117,134.5,117z M63.5,217c-7-13-11-88-11-88h11V217z M87.5,217v-88h11C98.5,129,94.5,204,87.5,217z"/>
</g>
<g id="Laag_9" class="st1">
	<path class="st2" d="M141.72,87.5C140.84,87.28,97.5,75,97.5,75s-4-1-5-4c0-4,8-6,8-6s2-2,0-4h-6v-5h-14v-5c0,0,1-4-2-4l-3-44
		l-3,44c-3,0-2,4-2,4v5h-14v5h-6c-2,2,0,4,0,4s8,2,8,6c-1,3-5,4-5,4S10.16,87.28,9.28,87.5c-0.48,0.18-0.36,0.48,0.05,0.5H75.5
		c0,0,65.19,0,66.17,0C142.09,87.97,142.21,87.68,141.72,87.5z"/>
</g>
<g id="Laag_8">
	<ellipse class="st0" cx="75.5" cy="103.5" rx="75" ry="28.5"/>
</g>
<g id="Laag_6">
	<ellipse class="st3" cx="75.5" cy="103.5" rx="75" ry="28.5"/>
	<polygon class="st4" points="24.15,88.98 44,80.5 74,82.5 74,92.5 40.77,97 	"/>
	<path class="st4" d="M101.11,76.71L101.5,80l27,6h6.2C134.7,86,119.73,78.41,101.11,76.71z"/>
	<polygon class="st4" points="128.08,97 101.5,100 96.5,110 119.5,116 138.5,108 	"/>
	<polygon class="st4" points="63.5,116 38,109.18 16.5,113 30.5,123 60.5,124 	"/>
	<path class="st4" d="M121.41,126.03L115.5,124l-33,5v3C82.5,132,111.31,130.07,121.41,126.03z"/>
	<path class="st5" d="M96.5,109"/>
	<path class="st6" d="M61,116.5c0,0,33.5-4.5,38-8"/>
	<ellipse class="st3" cx="75.5" cy="103.5" rx="75" ry="28.5"/>
</g>
<g id="Laag_5">
	<path class="st7" d="M37.5,109c0,0-2-8,3-12"/>
	<path class="st6" d="M74.5,92c0,0,23,5,27,8"/>
	<path class="st6" d="M102.5,79c-22,2-29,4-29,4"/>
	<path class="st6" d="M3.13,95c0,0,17.37-6,23.37-6"/>
	<polyline class="st4" points="43.5,78 44.5,81 44.5,81 	"/>
	<path class="st6" d="M128.5,86c0,0,2,7,0,11"/>
	<path class="st6" d="M135.5,108c0,0,9.17,1,14.59-1.5"/>
	<path class="st6" d="M119.5,116c0,0-1,7-4,9"/>
	<path class="st6" d="M84.5,130c0,0-21-4-26-7"/>
	<path class="st6" d="M19.5,114c0,0-16-3-19-10"/>
</g>
<g id="Laag_3">
	<g>
		<path class="st8" d="M301.16,201.99L295.22,223h-2.89l-4.32-15.35c-0.19-0.65-0.3-1.37-0.34-2.14h-0.06
			c-0.06,0.72-0.19,1.43-0.38,2.11L282.89,223h-2.86l-6.15-21.01h2.71l4.47,16.11c0.19,0.67,0.3,1.38,0.35,2.11h0.07
			c0.05-0.52,0.2-1.22,0.45-2.11l4.64-16.11h2.36l4.45,16.23c0.16,0.56,0.27,1.21,0.35,1.96h0.06c0.04-0.51,0.17-1.18,0.4-2.02
			l4.29-16.17H301.16z"/>
		<path class="st8" d="M314.63,216.1h-10.59c0.04,1.67,0.49,2.96,1.35,3.87s2.04,1.36,3.54,1.36c1.69,0,3.24-0.56,4.66-1.67v2.26
			c-1.32,0.96-3.06,1.44-5.23,1.44c-2.12,0-3.78-0.68-5-2.04c-1.21-1.36-1.82-3.28-1.82-5.75c0-2.33,0.66-4.24,1.98-5.71
			c1.32-1.47,2.97-2.21,4.93-2.21s3.48,0.63,4.56,1.9s1.61,3.03,1.61,5.29V216.1z M312.17,214.06c-0.01-1.39-0.34-2.47-1-3.24
			c-0.66-0.77-1.58-1.16-2.75-1.16c-1.13,0-2.09,0.41-2.89,1.22s-1.28,1.87-1.46,3.18H312.17z"/>
		<path class="st8" d="M337.96,223h-2.4v-2.55h-0.06c-1.11,1.93-2.83,2.9-5.16,2.9c-1.88,0-3.39-0.67-4.52-2.01
			s-1.69-3.17-1.69-5.49c0-2.48,0.62-4.47,1.88-5.96s2.92-2.24,5-2.24c2.06,0,3.56,0.81,4.5,2.43h0.06v-9.29h2.4V223z
			 M335.56,216.22v-2.21c0-1.21-0.4-2.24-1.2-3.08s-1.82-1.26-3.05-1.26c-1.46,0-2.62,0.54-3.46,1.61s-1.26,2.56-1.26,4.45
			c0,1.73,0.4,3.09,1.21,4.09c0.81,1,1.89,1.5,3.24,1.5c1.34,0,2.42-0.48,3.26-1.45S335.56,217.69,335.56,216.22z"/>
		<path class="st8" d="M354.22,216.1h-10.59c0.04,1.67,0.49,2.96,1.35,3.87s2.04,1.36,3.54,1.36c1.69,0,3.24-0.56,4.66-1.67v2.26
			c-1.32,0.96-3.06,1.44-5.23,1.44c-2.12,0-3.79-0.68-5-2.04c-1.21-1.36-1.82-3.28-1.82-5.75c0-2.33,0.66-4.24,1.99-5.71
			s2.97-2.21,4.93-2.21s3.48,0.63,4.56,1.9s1.61,3.03,1.61,5.29V216.1z M351.76,214.06c-0.01-1.39-0.34-2.47-1-3.24
			s-1.57-1.16-2.75-1.16c-1.13,0-2.1,0.41-2.89,1.22s-1.28,1.87-1.46,3.18H351.76z"/>
		<path class="st8" d="M359.6,223h-2.4v-22.21h2.4V223z"/>
		<path class="st8" d="M365.03,204.19c-0.43,0-0.8-0.15-1.1-0.44s-0.45-0.66-0.45-1.11s0.15-0.82,0.45-1.12
			c0.3-0.3,0.67-0.45,1.1-0.45c0.44,0,0.81,0.15,1.12,0.45c0.31,0.3,0.46,0.67,0.46,1.12c0,0.43-0.15,0.8-0.46,1.1
			C365.85,204.04,365.47,204.19,365.03,204.19z M366.21,223h-2.4v-15h2.4V223z"/>
		<path class="st8" d="M382.2,208l-5.98,15h-2.36l-5.68-15h2.64l3.81,10.9c0.28,0.8,0.46,1.5,0.53,2.09h0.06
			c0.1-0.75,0.25-1.43,0.47-2.04l3.98-10.96H382.2z"/>
		<path class="st8" d="M396,216.1h-10.59c0.04,1.67,0.49,2.96,1.35,3.87s2.04,1.36,3.54,1.36c1.69,0,3.24-0.56,4.66-1.67v2.26
			c-1.32,0.96-3.06,1.44-5.23,1.44c-2.12,0-3.78-0.68-5-2.04c-1.21-1.36-1.82-3.28-1.82-5.75c0-2.33,0.66-4.24,1.98-5.71
			s2.97-2.21,4.93-2.21s3.48,0.63,4.56,1.9s1.61,3.03,1.61,5.29V216.1z M393.54,214.06c-0.01-1.39-0.34-2.47-1-3.24
			c-0.66-0.77-1.58-1.16-2.75-1.16c-1.13,0-2.09,0.41-2.89,1.22s-1.28,1.87-1.46,3.18H393.54z"/>
		<path class="st8" d="M406.79,210.43c-0.42-0.32-1.03-0.48-1.82-0.48c-1.03,0-1.88,0.48-2.57,1.45c-0.69,0.97-1.03,2.29-1.03,3.96
			V223h-2.4v-15h2.4v3.09h0.06c0.34-1.05,0.86-1.88,1.57-2.47s1.49-0.89,2.36-0.89c0.62,0,1.1,0.07,1.44,0.21V210.43z"/>
		<path class="st8" d="M423.71,202.9c-0.47-0.26-1-0.4-1.6-0.4c-1.68,0-2.52,1.06-2.52,3.18V208h3.52v2.05h-3.52V223h-2.39v-12.95
			h-2.56V208h2.56v-2.43c0-1.57,0.45-2.81,1.36-3.73c0.91-0.91,2.04-1.37,3.4-1.37c0.73,0,1.31,0.09,1.74,0.26V202.9z"/>
		<path class="st8" d="M437.16,223h-2.4v-2.37h-0.06c-1,1.82-2.54,2.72-4.63,2.72c-3.57,0-5.36-2.13-5.36-6.39V208h2.39v8.58
			c0,3.16,1.21,4.75,3.63,4.75c1.17,0,2.14-0.43,2.89-1.3c0.76-0.86,1.13-1.99,1.13-3.39V208h2.4V223z"/>
		<path class="st8" d="M453.8,223h-2.4v-8.55c0-3.18-1.16-4.78-3.49-4.78c-1.2,0-2.2,0.45-2.98,1.36c-0.79,0.9-1.18,2.04-1.18,3.42
			V223h-2.4v-15h2.4v2.49h0.06c1.13-1.89,2.77-2.84,4.92-2.84c1.64,0,2.9,0.53,3.76,1.59s1.3,2.59,1.3,4.59V223z"/>
		<path class="st8" d="M459.86,219.66l-2.34,7.21h-1.71l1.71-7.21H459.86z"/>
		<path class="st8" d="M478.48,202.9c-0.47-0.26-1-0.4-1.6-0.4c-1.68,0-2.52,1.06-2.52,3.18V208h3.52v2.05h-3.52V223h-2.39v-12.95
			h-2.56V208h2.56v-2.43c0-1.57,0.45-2.81,1.36-3.73c0.91-0.91,2.04-1.37,3.4-1.37c0.73,0,1.31,0.09,1.74,0.26V202.9z"/>
		<path class="st8" d="M490.53,223h-2.4v-2.34h-0.06c-1.04,1.8-2.58,2.7-4.61,2.7c-1.49,0-2.66-0.4-3.51-1.19
			c-0.85-0.79-1.27-1.84-1.27-3.15c0-2.8,1.65-4.43,4.95-4.89l4.5-0.63c0-2.55-1.03-3.82-3.09-3.82c-1.81,0-3.44,0.62-4.89,1.85
			v-2.46c1.47-0.94,3.17-1.41,5.1-1.41c3.53,0,5.29,1.87,5.29,5.6V223z M488.13,215.41l-3.62,0.5c-1.11,0.16-1.95,0.43-2.52,0.83
			c-0.57,0.39-0.85,1.1-0.85,2.1c0,0.73,0.26,1.33,0.78,1.79s1.22,0.7,2.09,0.7c1.19,0,2.18-0.42,2.95-1.25
			c0.78-0.84,1.17-1.89,1.17-3.17V215.41z"/>
		<path class="st8" d="M504.62,222.31c-1.15,0.69-2.52,1.04-4.1,1.04c-2.14,0-3.87-0.7-5.18-2.09c-1.31-1.39-1.97-3.2-1.97-5.41
			c0-2.47,0.71-4.46,2.12-5.96c1.42-1.5,3.31-2.25,5.67-2.25c1.32,0,2.48,0.24,3.49,0.73v2.46c-1.11-0.78-2.3-1.17-3.57-1.17
			c-1.53,0-2.79,0.55-3.77,1.65c-0.98,1.1-1.47,2.54-1.47,4.33c0,1.76,0.46,3.14,1.38,4.16c0.92,1.02,2.16,1.52,3.71,1.52
			c1.31,0,2.54-0.43,3.69-1.3V222.31z"/>
		<path class="st8" d="M514.55,222.85c-0.57,0.31-1.31,0.47-2.24,0.47c-2.63,0-3.94-1.46-3.94-4.39v-8.88h-2.58V208h2.58v-3.66
			l2.4-0.78V208h3.78v2.05h-3.78v8.45c0,1.01,0.17,1.72,0.51,2.15s0.91,0.64,1.7,0.64c0.61,0,1.13-0.17,1.57-0.5V222.85z"/>
		<path class="st8" d="M516.19,222.46v-2.58c1.31,0.97,2.75,1.45,4.32,1.45c2.11,0,3.16-0.7,3.16-2.11c0-0.4-0.09-0.74-0.27-1.02
			c-0.18-0.28-0.43-0.53-0.73-0.74c-0.31-0.21-0.67-0.41-1.08-0.58c-0.42-0.17-0.86-0.35-1.34-0.54c-0.66-0.26-1.25-0.53-1.75-0.8
			c-0.5-0.27-0.92-0.57-1.26-0.91c-0.34-0.34-0.59-0.72-0.76-1.15s-0.26-0.93-0.26-1.51c0-0.7,0.16-1.33,0.48-1.87
			c0.32-0.54,0.75-1,1.29-1.36c0.54-0.37,1.15-0.64,1.84-0.83c0.69-0.19,1.4-0.28,2.13-0.28c1.3,0,2.46,0.22,3.49,0.67v2.43
			c-1.1-0.72-2.37-1.08-3.81-1.08c-0.45,0-0.85,0.05-1.22,0.15c-0.36,0.1-0.67,0.25-0.93,0.43s-0.46,0.41-0.6,0.67
			c-0.14,0.26-0.21,0.54-0.21,0.86c0,0.39,0.07,0.72,0.21,0.98c0.14,0.26,0.35,0.5,0.62,0.7s0.61,0.39,1,0.56s0.83,0.35,1.33,0.54
			c0.66,0.25,1.26,0.52,1.79,0.78c0.53,0.27,0.98,0.57,1.35,0.91c0.37,0.34,0.66,0.73,0.86,1.17c0.2,0.44,0.3,0.96,0.3,1.57
			c0,0.74-0.16,1.39-0.49,1.93s-0.76,1-1.31,1.36s-1.18,0.63-1.89,0.81s-1.46,0.26-2.24,0.26
			C518.66,223.35,517.33,223.05,516.19,222.46z"/>
		<path class="st8" d="M547.47,223h-2.4v-2.34h-0.06c-1.04,1.8-2.58,2.7-4.61,2.7c-1.49,0-2.66-0.4-3.51-1.19
			c-0.85-0.79-1.27-1.84-1.27-3.15c0-2.8,1.65-4.43,4.95-4.89l4.5-0.63c0-2.55-1.03-3.82-3.09-3.82c-1.81,0-3.44,0.62-4.89,1.85
			v-2.46c1.47-0.94,3.17-1.41,5.1-1.41c3.53,0,5.29,1.87,5.29,5.6V223z M545.06,215.41l-3.62,0.5c-1.11,0.16-1.95,0.43-2.52,0.83
			c-0.57,0.39-0.85,1.1-0.85,2.1c0,0.73,0.26,1.33,0.78,1.79s1.22,0.7,2.09,0.7c1.19,0,2.18-0.42,2.95-1.25
			c0.78-0.84,1.17-1.89,1.17-3.17V215.41z"/>
		<path class="st8" d="M563.78,223h-2.4v-8.55c0-3.18-1.16-4.78-3.49-4.78c-1.2,0-2.2,0.45-2.98,1.36c-0.79,0.9-1.18,2.04-1.18,3.42
			V223h-2.4v-15h2.4v2.49h0.06c1.13-1.89,2.77-2.84,4.92-2.84c1.64,0,2.9,0.53,3.76,1.59s1.3,2.59,1.3,4.59V223z"/>
		<path class="st8" d="M580.45,223h-2.4v-2.55h-0.06c-1.11,1.93-2.83,2.9-5.16,2.9c-1.88,0-3.39-0.67-4.52-2.01
			c-1.13-1.34-1.69-3.17-1.69-5.49c0-2.48,0.62-4.47,1.88-5.96s2.92-2.24,5-2.24c2.06,0,3.56,0.81,4.5,2.43h0.06v-9.29h2.4V223z
			 M578.05,216.22v-2.21c0-1.21-0.4-2.24-1.2-3.08s-1.82-1.26-3.05-1.26c-1.46,0-2.62,0.54-3.46,1.61s-1.26,2.56-1.26,4.45
			c0,1.73,0.4,3.09,1.21,4.09c0.8,1,1.89,1.5,3.24,1.5c1.34,0,2.42-0.48,3.26-1.45C577.63,218.91,578.05,217.69,578.05,216.22z"/>
		<path class="st8" d="M599.63,202.9c-0.47-0.26-1-0.4-1.6-0.4c-1.68,0-2.52,1.06-2.52,3.18V208h3.52v2.05h-3.52V223h-2.39v-12.95
			h-2.56V208h2.56v-2.43c0-1.57,0.45-2.81,1.36-3.73c0.91-0.91,2.04-1.37,3.4-1.37c0.73,0,1.31,0.09,1.74,0.26V202.9z"/>
		<path class="st8" d="M602.17,204.19c-0.43,0-0.8-0.15-1.1-0.44s-0.45-0.66-0.45-1.11s0.15-0.82,0.45-1.12
			c0.3-0.3,0.67-0.45,1.1-0.45c0.44,0,0.81,0.15,1.12,0.45c0.31,0.3,0.46,0.67,0.46,1.12c0,0.43-0.15,0.8-0.46,1.1
			C602.99,204.04,602.61,204.19,602.17,204.19z M603.35,223h-2.4v-15h2.4V223z"/>
		<path class="st8" d="M620.35,221.8c0,5.51-2.64,8.26-7.91,8.26c-1.86,0-3.48-0.35-4.86-1.05v-2.4c1.69,0.94,3.3,1.41,4.83,1.41
			c3.69,0,5.54-1.96,5.54-5.89v-1.64h-0.06c-1.14,1.91-2.86,2.87-5.16,2.87c-1.87,0-3.37-0.67-4.5-2c-1.14-1.33-1.71-3.12-1.71-5.37
			c0-2.55,0.61-4.58,1.84-6.08s2.9-2.26,5.03-2.26c2.02,0,3.52,0.81,4.5,2.43h0.06V208h2.4V221.8z M617.95,216.22v-2.21
			c0-1.19-0.4-2.21-1.21-3.06c-0.8-0.85-1.81-1.27-3.01-1.27c-1.48,0-2.65,0.54-3.49,1.62s-1.26,2.59-1.26,4.53
			c0,1.67,0.4,3.01,1.21,4.01c0.8,1,1.87,1.5,3.2,1.5c1.35,0,2.44-0.48,3.29-1.44S617.95,217.71,617.95,216.22z"/>
		<path class="st8" d="M636.68,223h-2.4v-2.37h-0.06c-1,1.82-2.54,2.72-4.63,2.72c-3.57,0-5.36-2.13-5.36-6.39V208h2.39v8.58
			c0,3.16,1.21,4.75,3.63,4.75c1.17,0,2.14-0.43,2.89-1.3c0.76-0.86,1.13-1.99,1.13-3.39V208h2.4V223z"/>
		<path class="st8" d="M648.7,210.43c-0.42-0.32-1.03-0.48-1.82-0.48c-1.03,0-1.88,0.48-2.57,1.45c-0.69,0.97-1.03,2.29-1.03,3.96
			V223h-2.4v-15h2.4v3.09h0.06c0.34-1.05,0.86-1.88,1.57-2.47s1.49-0.89,2.36-0.89c0.62,0,1.1,0.07,1.44,0.21V210.43z"/>
		<path class="st8" d="M662.3,216.1h-10.59c0.04,1.67,0.49,2.96,1.35,3.87s2.04,1.36,3.54,1.36c1.69,0,3.24-0.56,4.66-1.67v2.26
			c-1.32,0.96-3.06,1.44-5.23,1.44c-2.12,0-3.78-0.68-5-2.04c-1.21-1.36-1.82-3.28-1.82-5.75c0-2.33,0.66-4.24,1.98-5.71
			s2.97-2.21,4.93-2.21s3.48,0.63,4.56,1.9s1.61,3.03,1.61,5.29V216.1z M659.84,214.06c-0.01-1.39-0.34-2.47-1-3.24
			c-0.66-0.77-1.58-1.16-2.75-1.16c-1.13,0-2.09,0.41-2.89,1.22s-1.28,1.87-1.46,3.18H659.84z"/>
		<path class="st8" d="M664.37,222.46v-2.58c1.31,0.97,2.75,1.45,4.32,1.45c2.11,0,3.16-0.7,3.16-2.11c0-0.4-0.09-0.74-0.27-1.02
			c-0.18-0.28-0.43-0.53-0.73-0.74c-0.31-0.21-0.67-0.41-1.08-0.58c-0.42-0.17-0.86-0.35-1.34-0.54c-0.66-0.26-1.25-0.53-1.75-0.8
			c-0.5-0.27-0.92-0.57-1.26-0.91c-0.34-0.34-0.59-0.72-0.76-1.15s-0.26-0.93-0.26-1.51c0-0.7,0.16-1.33,0.48-1.87
			c0.32-0.54,0.75-1,1.29-1.36c0.54-0.37,1.15-0.64,1.84-0.83c0.69-0.19,1.4-0.28,2.13-0.28c1.3,0,2.46,0.22,3.49,0.67v2.43
			c-1.1-0.72-2.37-1.08-3.81-1.08c-0.45,0-0.85,0.05-1.22,0.15c-0.36,0.1-0.67,0.25-0.93,0.43s-0.46,0.41-0.6,0.67
			c-0.14,0.26-0.21,0.54-0.21,0.86c0,0.39,0.07,0.72,0.21,0.98c0.14,0.26,0.35,0.5,0.62,0.7s0.61,0.39,1,0.56s0.83,0.35,1.33,0.54
			c0.66,0.25,1.26,0.52,1.79,0.78c0.53,0.27,0.98,0.57,1.35,0.91c0.37,0.34,0.66,0.73,0.86,1.17c0.2,0.44,0.3,0.96,0.3,1.57
			c0,0.74-0.16,1.39-0.49,1.93s-0.76,1-1.31,1.36s-1.18,0.63-1.89,0.81s-1.46,0.26-2.24,0.26
			C666.84,223.35,665.5,223.05,664.37,222.46z"/>
	</g>
</g>
<g id="Laag_2">
	<g>
		<path class="st8" d="M378.17,171h-18.66l-7.29-18.56c-2.38-6.04-5.62-9.05-9.71-9.05h-3.52V171h-16.24V98.88h25.75
			c17.5,0,26.25,6.54,26.25,19.61c0,5-1.43,9.22-4.3,12.67c-2.87,3.45-6.87,5.85-12,7.19v0.2c4.22,1.34,7.66,5.05,10.31,11.12
			L378.17,171z M338.99,111.05v20.07h7.04c3.49,0,6.29-1.01,8.42-3.04c2.13-2.03,3.19-4.55,3.19-7.57c0-6.3-3.77-9.46-11.32-9.46
			H338.99z"/>
		<path class="st8" d="M428.16,149.78h-33.6c0.54,7.48,5.25,11.22,14.13,11.22c5.67,0,10.65-1.34,14.94-4.02v11.47
			c-4.76,2.55-10.95,3.82-18.56,3.82c-8.31,0-14.77-2.3-19.36-6.92c-4.59-4.61-6.89-11.04-6.89-19.29c0-8.55,2.48-15.32,7.44-20.32
			c4.96-5,11.06-7.49,18.31-7.49c7.51,0,13.32,2.23,17.43,6.69s6.16,10.51,6.16,18.16V149.78z M413.42,140.02
			c0-7.38-2.98-11.06-8.95-11.06c-2.55,0-4.75,1.06-6.61,3.17c-1.86,2.11-2.99,4.75-3.39,7.9H413.42z"/>
		<path class="st8" d="M451.44,165.02h-0.2v29.67h-15.89V119.5h15.89v7.75h0.2c3.92-6,9.44-9,16.55-9c6.67,0,11.83,2.29,15.46,6.87
			c3.64,4.58,5.46,10.8,5.46,18.68c0,8.58-2.12,15.47-6.36,20.67c-4.24,5.2-9.88,7.8-16.92,7.8
			C459.42,172.26,454.69,169.84,451.44,165.02z M450.99,143.89v4.12c0,3.55,0.94,6.46,2.82,8.7c1.88,2.25,4.34,3.37,7.39,3.37
			c3.62,0,6.43-1.4,8.42-4.2c1.99-2.8,2.99-6.76,2.99-11.89c0-9.05-3.52-13.58-10.56-13.58c-3.25,0-5.91,1.23-7.97,3.7
			C452.02,136.57,450.99,139.84,450.99,143.89z"/>
		<path class="st8" d="M521.5,172.26c-8.58,0-15.33-2.41-20.24-7.22c-4.91-4.81-7.37-11.34-7.37-19.59c0-8.52,2.55-15.18,7.64-19.99
			c5.1-4.81,11.99-7.22,20.67-7.22c8.55,0,15.26,2.41,20.12,7.22s7.29,11.17,7.29,19.09c0,8.55-2.51,15.31-7.52,20.27
			C537.08,169.78,530.21,172.26,521.5,172.26z M521.9,130.41c-3.76,0-6.67,1.29-8.75,3.87c-2.08,2.58-3.12,6.24-3.12,10.96
			c0,9.89,3.99,14.84,11.97,14.84c7.61,0,11.42-5.08,11.42-15.24C533.42,135.22,529.58,130.41,521.9,130.41z"/>
		<path class="st8" d="M591.25,133.83c-1.91-1.04-4.14-1.56-6.69-1.56c-3.45,0-6.15,1.27-8.1,3.8c-1.94,2.53-2.92,5.98-2.92,10.33
			V171h-15.89v-51.5h15.89v9.56h0.2c2.51-6.97,7.04-10.46,13.58-10.46c1.68,0,2.98,0.2,3.92,0.6V133.83z"/>
		<path class="st8" d="M630.48,170.4c-2.35,1.24-5.88,1.86-10.61,1.86c-11.2,0-16.8-5.82-16.8-17.45v-23.59h-8.35V119.5h8.35v-11.11
			l15.84-4.53v15.64h11.57v11.72h-11.57v20.82c0,5.37,2.13,8.05,6.39,8.05c1.68,0,3.4-0.49,5.18-1.46V170.4z"/>
		<path class="st8" d="M635.2,169.64v-12.88c5.23,3.12,10.14,4.68,14.74,4.68c5.03,0,7.54-1.56,7.54-4.68c0-1.38-0.6-2.5-1.81-3.37
			s-3.84-2.08-7.9-3.62c-4.69-1.78-7.96-3.85-9.81-6.21c-1.84-2.36-2.77-5.34-2.77-8.93c0-4.96,1.96-8.94,5.88-11.92
			c3.92-2.98,9.17-4.48,15.74-4.48c4.26,0,8.52,0.69,12.77,2.06v12.27c-3.99-2.35-8.18-3.52-12.57-3.52c-4.19,0-6.29,1.44-6.29,4.33
			c0,1.44,0.5,2.62,1.51,3.52s3.18,1.94,6.54,3.12c5.13,1.81,8.73,3.92,10.81,6.31c2.08,2.4,3.12,5.37,3.12,8.93
			c0,5.2-1.99,9.33-5.96,12.4c-3.97,3.07-9.51,4.6-16.62,4.6C644.81,172.26,639.83,171.38,635.2,169.64z"/>
	</g>
	<g>
		<path class="st8" d="M210.34,104.59h-28.16v24.95h26.05v7.59h-26.05v31.94h-8.45V96.94h36.61V104.59z"/>
		<path class="st8" d="M224.88,104.49c-1.48,0-2.73-0.5-3.77-1.51c-1.04-1.01-1.56-2.28-1.56-3.82c0-1.54,0.52-2.82,1.56-3.85
			c1.04-1.02,2.3-1.53,3.77-1.53c1.51,0,2.79,0.51,3.85,1.53c1.06,1.02,1.58,2.31,1.58,3.85c0,1.48-0.53,2.73-1.58,3.77
			C227.67,103.97,226.38,104.49,224.88,104.49z M228.9,169.06h-8.25v-51.5h8.25V169.06z"/>
		<path class="st8" d="M268.78,100.06c-1.61-0.91-3.44-1.36-5.48-1.36c-5.77,0-8.65,3.64-8.65,10.91v7.95h12.07v7.04h-12.07v44.46
			h-8.2v-44.46h-8.8v-7.04h8.8v-8.35c0-5.4,1.56-9.66,4.68-12.8c3.12-3.13,7.01-4.7,11.67-4.7c2.51,0,4.51,0.3,5.98,0.91V100.06z"/>
		<path class="st8" d="M310.17,169.06h-8.25v-8.05h-0.2c-3.59,6.17-8.87,9.25-15.84,9.25c-5.13,0-9.15-1.36-12.04-4.07
			c-2.9-2.72-4.35-6.32-4.35-10.81c0-9.62,5.67-15.22,17-16.8l15.44-2.16c0-8.75-3.54-13.13-10.61-13.13c-6.2,0-11.8,2.11-16.8,6.34
			v-8.45c5.06-3.22,10.9-4.83,17.5-4.83c12.1,0,18.16,6.4,18.16,19.21V169.06z M301.92,143.01l-12.42,1.71
			c-3.82,0.54-6.71,1.48-8.65,2.84c-1.95,1.36-2.92,3.76-2.92,7.22c0,2.52,0.9,4.57,2.69,6.16c1.79,1.59,4.18,2.39,7.17,2.39
			c4.09,0,7.47-1.43,10.13-4.3c2.67-2.87,4-6.5,4-10.89V143.01z"/>
	</g>
</g>
</svg>
